<svg width="130" height="25" viewBox="0 0 130 25" fill="none" xmlns="http://www.w3.org/2000/svg">
<path d="M37.2073 5.05858L37.2158 4.93358H37.3315V2.75305V2.66756L37.2518 2.63656C36.8537 2.48167 36.3721 2.42163 35.8694 2.42163C33.8698 2.42163 32.3132 3.34709 31.5178 4.95971V2.78232V2.65732H31.3928H28.9512H28.8262V2.78232V17.6933V17.8183H28.9512H31.3928H31.5178V17.6933V10.061C31.5178 8.32528 31.9282 7.05584 32.6745 6.22126C33.4187 5.38904 34.5143 4.97 35.9279 4.97C36.3215 4.97 36.6914 4.99416 37.0815 5.04318V5.05858H37.2065H37.2073Z" fill="#101928" stroke="#101928" stroke-width="0.249997"/>
<path d="M52.7622 17.8182H52.8872V17.6932V2.90723V2.78223V2.78146H52.7622V2.65723H50.3205H50.1955V2.78223V5.00203C49.2085 3.30438 47.188 2.24439 44.8842 2.24439C40.7619 2.24439 37.7532 5.58413 37.7532 10.2373C37.7532 14.8905 40.7619 18.231 44.8842 18.231C47.188 18.231 49.2085 17.171 50.1955 15.4734V17.6932V17.8182H50.3205H52.7622ZM48.947 6.31127L48.947 6.31128L48.9483 6.31275C49.8543 7.31694 50.3118 8.64076 50.3118 10.2365C50.3118 11.8323 49.8543 13.1561 48.9483 14.1603L48.947 14.1618C48.0716 15.1637 46.8863 15.6811 45.4365 15.6811C43.9874 15.6811 42.8013 15.1641 41.896 14.1611C41.0185 13.1565 40.5611 11.832 40.5611 10.2365C40.5611 8.64107 41.0185 7.31663 41.896 6.31201C42.8013 5.30895 43.9874 4.79199 45.4365 4.79199C46.8863 4.79199 48.0716 5.30941 48.947 6.31127Z" fill="#101928" stroke="#101928" stroke-width="0.249997"/>
<path d="M68.8121 2.78247V2.65747H68.6871H68.6855H66.2439H66.1189V2.78247V11.2396C66.1189 12.4431 65.6534 13.4477 64.8669 14.1526C64.0792 14.8584 62.9622 15.27 61.651 15.27C60.5247 15.27 59.7235 14.9672 59.1994 14.3422C58.6713 13.7122 58.4039 12.731 58.4039 11.3282V2.78247V2.65747H58.2789H55.8373H55.7123V2.78247V11.9174C55.7123 13.8093 56.2047 15.2874 57.1299 16.2935C58.0564 17.3011 59.4013 17.8184 61.0702 17.8184C63.3163 17.8184 65.1595 16.9113 66.1197 15.2639V16.2492C66.1197 18.0434 65.688 19.3718 64.8982 20.2508C64.1104 21.1276 62.9493 21.5759 61.4484 21.5759C59.732 21.5759 58.077 20.9671 56.9107 19.8996L56.8124 19.8097L56.7289 19.9134L55.3047 21.6818L55.2356 21.7677L55.3122 21.8471C56.7081 23.2926 59.0118 24.1251 61.507 24.1251C63.7997 24.1251 65.6313 23.4393 66.8888 22.1005C68.1452 20.7628 68.8121 18.7906 68.8121 16.25V2.78247Z" fill="#101928" stroke="#101928" stroke-width="0.249997"/>
<path d="M84.5822 17.8182H84.7072V17.6932V17.6924V8.14463C84.7072 6.28255 84.2295 4.80471 83.312 3.79124C82.3928 2.77592 81.0476 2.24365 79.3493 2.24365C77.11 2.24365 75.2942 3.14588 74.3584 4.78529V2.7815V2.6565H74.2334H71.7917H71.6667V2.7815V17.6932V17.8182H71.7917H74.2334H74.3584V17.6932V8.8232C74.3584 7.60412 74.8174 6.59967 75.5929 5.89895C76.3695 5.19719 77.4718 4.7928 78.7685 4.7928C79.9095 4.7928 80.7103 5.09581 81.2305 5.72032C81.7551 6.35008 82.0156 7.33112 82.0156 8.73463V17.6932V17.8182H82.1406H84.5822Z" fill="#101928" stroke="#101928" stroke-width="0.249997"/>
<path d="M102.082 17.8182H102.207V17.6932V2.90723V2.78223V2.78146H102.082V2.65723H99.6408H99.5158V2.78223V5.00203C98.5289 3.30438 96.5083 2.24439 94.2045 2.24439C90.0822 2.24439 87.0735 5.58413 87.0735 10.2373C87.0735 14.8905 90.0822 18.231 94.2045 18.231C96.5083 18.231 98.5289 17.171 99.5158 15.4734V17.6932V17.8182H99.6408H102.082ZM98.2673 6.31127L98.2673 6.31128L98.2687 6.31275C99.1746 7.31694 99.6321 8.64076 99.6321 10.2365C99.6321 11.8323 99.1746 13.1561 98.2687 14.1603L98.2673 14.1618C97.3919 15.1637 96.2066 15.6811 94.7568 15.6811C93.3077 15.6811 92.1216 15.1641 91.2163 14.1611C90.3388 13.1565 89.8814 11.832 89.8814 10.2365C89.8814 8.64107 90.3388 7.31663 91.2163 6.31201C92.1216 5.30895 93.3077 4.79199 94.7568 4.79199C96.2066 4.79199 97.3919 5.30941 98.2673 6.31127Z" fill="#101928" stroke="#101928" stroke-width="0.249997"/>
<path d="M113.292 2.78247V2.65747H113.167H110.725H110.724H110.599V2.78247V12.1246C110.599 13.9236 111.243 15.4531 112.378 16.5325C113.513 17.6114 115.13 18.232 117.061 18.232C118.993 18.232 120.61 17.6114 121.745 16.5325C122.88 15.4531 123.524 13.9236 123.524 12.1246V2.78247V2.65747H123.399H120.957H120.832V2.78247V11.9767C120.832 13.1907 120.483 14.1124 119.849 14.7311C119.214 15.3503 118.275 15.6829 117.062 15.6829C115.849 15.6829 114.91 15.3503 114.275 14.7311C113.641 14.1124 113.292 13.1907 113.292 11.9767V2.78247Z" fill="#101928" stroke="#101928" stroke-width="0.249997"/>
<path d="M126.67 2.65747H126.545V2.78247V17.6942V17.8192H126.67H129.112H129.237V17.6942V2.78247V2.65747H129.112H126.67Z" fill="#101928" stroke="#101928" stroke-width="0.249997"/>
<path d="M18.0288 12.8567L16.7202 11.5481C16.6871 11.515 16.6987 11.4595 16.741 11.441C17.2032 11.2415 17.6353 10.9843 18.0288 10.68C18.1698 10.5707 18.3054 10.4559 18.4355 10.335C18.8153 9.98222 19.1488 9.58093 19.426 9.14035C19.4268 9.13881 19.4276 9.13804 19.4284 9.1365C19.5963 8.86923 19.7442 8.58733 19.8689 8.29387C20.1701 7.58525 20.338 6.80655 20.3411 5.98856C20.3411 5.98856 20.3411 5.98779 20.3411 5.98702C20.3411 5.97932 20.3411 5.97162 20.3411 5.96391C20.3411 5.1467 20.177 4.36876 19.8797 3.65938C19.7804 3.42137 19.6656 3.19108 19.537 2.97002C19.537 2.96848 19.5354 2.96771 19.5354 2.96694C18.957 1.97334 18.0997 1.16305 17.0714 0.641604C17.0676 0.639293 17.063 0.636983 17.0591 0.635442C16.2635 0.234151 14.9186 0.00616186 13.9682 0C13.9551 0 14.3903 0 14.3772 0C14.3641 0 14.3518 0 14.3387 0H1.77693C0.795651 0 0 0.795651 0 1.77693V14.4473C0 14.8578 0.0415926 15.2591 0.120927 15.6465C0.120927 15.6473 0.120927 15.6481 0.120927 15.6496C0.268811 16.3721 0.547636 17.0476 0.931212 17.6491C0.931212 17.6507 0.932752 17.6514 0.933522 17.653C1.5759 18.6597 2.5125 19.4607 3.62164 19.9344C3.62549 19.9359 3.62934 19.9375 3.63319 19.939C3.64166 19.9429 3.6509 19.9467 3.65938 19.9506C4.23012 20.1901 4.84554 20.3426 5.49022 20.3935C5.64658 20.4058 5.8037 20.4119 5.96314 20.4119C6.78575 20.4119 7.56908 20.2456 8.28154 19.9444C8.78451 19.7318 9.25281 19.4522 9.6749 19.1164C9.67567 19.1164 9.67644 19.1156 9.67721 19.1149C9.68491 19.1087 9.69338 19.1025 9.70108 19.0956C9.70339 19.0941 9.7057 19.0918 9.70802 19.0902C10.2541 18.6489 10.7209 18.1136 11.0829 17.5082C11.5959 16.6509 11.9001 15.655 11.9247 14.5898V14.5874C11.9255 14.5412 11.9263 14.495 11.9263 14.4488C11.9263 14.4026 11.9263 14.3564 11.9247 14.3102V12.1805C11.9247 12.0888 12.0357 12.0426 12.1004 12.1073L17.5012 17.5082L18.7652 18.7721C19.3483 19.3552 20.3442 18.9423 20.3442 18.1182V15.836C20.3442 15.4139 20.1763 15.0088 19.8774 14.7099L18.0258 12.8583L18.0288 12.8567ZM14.3749 8.29387H8.68592C8.46332 8.29387 8.28231 8.4741 8.28231 8.69747V14.4973V14.4981C8.20914 16.1248 6.5724 17.1785 5.06967 16.5492C4.25785 16.2096 3.70867 15.4262 3.65938 14.5397V4.01522C3.65938 3.82113 3.81727 3.66323 4.01137 3.66323L8.87462 3.66015C8.87462 3.66015 8.87462 3.66169 8.87385 3.66246C9.89441 3.66246 10.9481 3.66246 11.9263 3.66246C12.8398 3.66246 13.6878 3.66246 14.381 3.664C15.6357 3.66554 16.6709 4.70997 16.6755 5.96083C16.6802 7.24327 15.6627 8.27615 14.3749 8.29464V8.29387Z" fill="#E8562E"/>
</svg>
